<svg width="36" height="32" viewBox="0 0 36 32" fill="none" xmlns="http://www.w3.org/2000/svg">
<path d="M33.153 0.375244L20 10.1442L22.4323 4.38063L33.153 0.375244Z" fill="#E2761B" stroke="#E2761B" stroke-width="0.39548" stroke-linecap="round" stroke-linejoin="round"/>
<path d="M2.78906 0.375L15.8363 10.2364L13.523 4.38038L2.78906 0.375Z" fill="#E4761B" stroke="#E4761B" stroke-width="0.39548" stroke-linecap="round" stroke-linejoin="round"/>
<path d="M28.421 23.0195L24.918 28.3865L32.4132 30.4487L34.5679 23.1385L28.421 23.0195Z" fill="#E4761B" stroke="#E4761B" stroke-width="0.39548" stroke-linecap="round" stroke-linejoin="round"/>
<path d="M1.40039 23.1385L3.54188 30.4487L11.0371 28.3865L7.53405 23.0195L1.40039 23.1385Z" fill="#E4761B" stroke="#E4761B" stroke-width="0.39548" stroke-linecap="round" stroke-linejoin="round"/>
<path d="M10.614 13.9508L8.52539 17.1102L15.9677 17.4407L15.7034 9.44312L10.614 13.9508Z" fill="#E4761B" stroke="#E4761B" stroke-width="0.39548" stroke-linecap="round" stroke-linejoin="round"/>
<path d="M25.3273 13.9508L20.1718 9.35059L20 17.4407L27.4291 17.1102L25.3273 13.9508Z" fill="#E4761B" stroke="#E4761B" stroke-width="0.39548" stroke-linecap="round" stroke-linejoin="round"/>
<path d="M11.0352 28.3863L15.5032 26.2051L11.6432 23.1912L11.0352 28.3863Z" fill="#E4761B" stroke="#E4761B" stroke-width="0.39548" stroke-linecap="round" stroke-linejoin="round"/>
<path d="M20.4375 26.2051L24.9188 28.3863L24.2975 23.1912L20.4375 26.2051Z" fill="#E4761B" stroke="#E4761B" stroke-width="0.39548" stroke-linecap="round" stroke-linejoin="round"/>
<path d="M24.9188 28.3862L20.4375 26.2051L20.7944 29.1265L20.7548 30.3559L24.9188 28.3862Z" fill="#D7C1B3" stroke="#D7C1B3" stroke-width="0.39548" stroke-linecap="round" stroke-linejoin="round"/>
<path d="M11.041 28.3862L15.205 30.3559L15.1786 29.1265L15.5091 26.2051L11.041 28.3862Z" fill="#D7C1B3" stroke="#D7C1B3" stroke-width="0.39548" stroke-linecap="round" stroke-linejoin="round"/>
<path d="M15.2688 21.2611L11.541 20.1639L14.1716 18.9609L15.2688 21.2611Z" fill="#233447" stroke="#233447" stroke-width="0.39548" stroke-linecap="round" stroke-linejoin="round"/>
<path d="M20.6777 21.2611L21.7749 18.9609L24.4187 20.1639L20.6777 21.2611Z" fill="#233447" stroke="#233447" stroke-width="0.39548" stroke-linecap="round" stroke-linejoin="round"/>
<path d="M11.0363 28.3865L11.6708 23.0195L7.5332 23.1385L11.0363 28.3865Z" fill="#CD6116" stroke="#CD6116" stroke-width="0.39548" stroke-linecap="round" stroke-linejoin="round"/>
<path d="M24.2832 23.0195L24.9177 28.3865L28.4208 23.1385L24.2832 23.0195Z" fill="#CD6116" stroke="#CD6116" stroke-width="0.39548" stroke-linecap="round" stroke-linejoin="round"/>
<path d="M27.4291 17.1106L20 17.4411L20.6874 21.2614L21.7846 18.9613L24.4284 20.1642L27.4291 17.1106Z" fill="#CD6116" stroke="#CD6116" stroke-width="0.39548" stroke-linecap="round" stroke-linejoin="round"/>
<path d="M11.5393 20.1642L14.1832 18.9613L15.2671 21.2614L15.9677 17.4411L8.52539 17.1106L11.5393 20.1642Z" fill="#CD6116" stroke="#CD6116" stroke-width="0.39548" stroke-linecap="round" stroke-linejoin="round"/>
<path d="M8.52734 17.1104L11.647 23.1911L11.5413 20.164L8.52734 17.1104Z" fill="#E4751F" stroke="#E4751F" stroke-width="0.39548" stroke-linecap="round" stroke-linejoin="round"/>
<path d="M24.4291 20.164L24.2969 23.1911L27.4298 17.1104L24.4291 20.164Z" fill="#E4751F" stroke="#E4751F" stroke-width="0.39548" stroke-linecap="round" stroke-linejoin="round"/>
<path d="M15.9701 17.4409L15.2695 21.2612L16.142 25.7689L16.3403 19.8336L15.9701 17.4409Z" fill="#E4751F" stroke="#E4751F" stroke-width="0.39548" stroke-linecap="round" stroke-linejoin="round"/>
<path d="M20.0014 17.4409L19.6445 19.8204L19.8032 25.7689L20.6888 21.2612L20.0014 17.4409Z" fill="#E4751F" stroke="#E4751F" stroke-width="0.39548" stroke-linecap="round" stroke-linejoin="round"/>
<path d="M20.6884 21.2612L19.8027 25.769L20.4372 26.2052L24.2972 23.1912L24.4294 20.1641L20.6884 21.2612Z" fill="#F6851B" stroke="#F6851B" stroke-width="0.39548" stroke-linecap="round" stroke-linejoin="round"/>
<path d="M11.541 20.1641L11.6468 23.1912L15.5067 26.2052L16.1413 25.769L15.2688 21.2612L11.541 20.1641Z" fill="#F6851B" stroke="#F6851B" stroke-width="0.39548" stroke-linecap="round" stroke-linejoin="round"/>
<path d="M20.757 30.3559L20.7967 29.1265L20.4662 28.8357H15.4826L15.1786 29.1265L15.205 30.3559L11.041 28.3862L12.4951 29.5759L15.443 31.6249H20.5059L23.467 29.5759L24.9211 28.3862L20.757 30.3559Z" fill="#C0AD9E" stroke="#C0AD9E" stroke-width="0.39548" stroke-linecap="round" stroke-linejoin="round"/>
<path d="M20.4389 26.205L19.8044 25.7688H16.1427L15.5082 26.205L15.1777 29.1264L15.4818 28.8356H20.4654L20.7958 29.1264L20.4389 26.205Z" fill="#161616" stroke="#161616" stroke-width="0.39548" stroke-linecap="round" stroke-linejoin="round"/>
<path d="M33.7095 10.7787L34.8331 5.38528L33.1543 0.375244L20.4375 9.81367L25.3286 13.9512L32.2421 15.9738L33.7756 14.1892L33.1146 13.7133L34.1721 12.7483L33.3526 12.1138L34.4101 11.3074L33.7095 10.7787Z" fill="#763D16" stroke="#763D16" stroke-width="0.39548" stroke-linecap="round" stroke-linejoin="round"/>
<path d="M1.125 5.38528L2.24862 10.7787L1.53479 11.3074L2.59232 12.1138L1.78595 12.7483L2.84348 13.7133L2.18253 14.1892L3.70272 15.9738L10.6163 13.9512L15.5074 9.81367L2.79061 0.375244L1.125 5.38528Z" fill="#763D16" stroke="#763D16" stroke-width="0.39548" stroke-linecap="round" stroke-linejoin="round"/>
<path d="M32.2415 15.9737L25.328 13.9512L27.4298 17.1105L24.2969 23.1913L28.4212 23.1384H34.5681L32.2415 15.9737Z" fill="#F6851B" stroke="#F6851B" stroke-width="0.39548" stroke-linecap="round" stroke-linejoin="round"/>
<path d="M10.616 13.9512L3.70246 15.9737L1.40234 23.1384H7.536L11.6471 23.1913L8.52743 17.1105L10.616 13.9512Z" fill="#F6851B" stroke="#F6851B" stroke-width="0.39548" stroke-linecap="round" stroke-linejoin="round"/>
<path d="M20.0008 17.4411L20.437 9.81366L22.4463 4.38062H13.5234L15.5063 9.81366L15.969 17.4411L16.1276 19.847L16.1408 25.7691H19.8025L19.8289 19.847L20.0008 17.4411Z" fill="#F6851B" stroke="#F6851B" stroke-width="0.39548" stroke-linecap="round" stroke-linejoin="round"/>
</svg>
